<svg xmlns="http://www.w3.org/2000/svg" xmlns:xlink="http://www.w3.org/1999/xlink" width="500" zoomAndPan="magnify" viewBox="0 0 375 374.999991" height="500" preserveAspectRatio="xMidYMid meet" version="1.0"><defs><clipPath id="1a13cad86e"><path d="M 92 73.6875 L 221 73.6875 L 221 202 L 92 202 Z M 92 73.6875 " clip-rule="nonzero"/></clipPath><clipPath id="4569915ea0"><path d="M 37.5 220 L 276 220 L 276 301.6875 L 37.5 301.6875 Z M 37.5 220 " clip-rule="nonzero"/></clipPath><clipPath id="954ea79d1f"><path d="M 248 164 L 337.5 164 L 337.5 183 L 248 183 Z M 248 164 " clip-rule="nonzero"/></clipPath></defs><g clip-path="url(#1a13cad86e)"><path fill="#000000" d="M 156.339844 73.730469 C 191.605469 73.730469 220.109375 102.28125 220.109375 137.605469 C 220.109375 172.929688 191.605469 201.476562 156.339844 201.476562 C 121.074219 201.476562 92.574219 172.929688 92.574219 137.605469 C 92.574219 102.28125 121.074219 73.730469 156.339844 73.730469 Z M 156.339844 73.730469 " fill-opacity="1" fill-rule="evenodd"/></g><g clip-path="url(#4569915ea0)"><path fill="#000000" d="M 112.378906 220.832031 L 200.785156 220.832031 C 241.847656 220.832031 275.664062 254.707031 275.664062 295.835938 L 275.664062 301.644531 L 37.5 301.644531 L 37.5 295.835938 C 37.5 254.707031 71.316406 220.832031 112.378906 220.832031 Z M 112.378906 220.832031 " fill-opacity="1" fill-rule="evenodd"/></g><path fill="#000000" d="M 292.574219 128.410156 C 297.402344 128.410156 301.269531 132.28125 301.269531 137.121094 L 301.269531 208.738281 C 301.269531 213.574219 297.402344 217.445312 292.574219 217.445312 C 287.742188 217.445312 283.875 213.574219 283.875 208.738281 L 283.875 137.121094 C 283.875 132.28125 287.742188 128.410156 292.574219 128.410156 Z M 292.574219 128.410156 " fill-opacity="1" fill-rule="evenodd"/><g clip-path="url(#954ea79d1f)"><path fill="#000000" d="M 337.5 173.414062 C 337.5 178.25 333.636719 182.121094 328.804688 182.121094 L 257.308594 182.121094 C 252.476562 182.121094 248.609375 178.25 248.609375 173.414062 C 248.609375 168.574219 252.476562 164.703125 257.308594 164.703125 L 328.804688 164.703125 C 333.636719 164.703125 337.5 168.574219 337.5 173.414062 Z M 337.5 173.414062 " fill-opacity="1" fill-rule="evenodd"/></g></svg>