<svg xmlns="http://www.w3.org/2000/svg" xmlns:xlink="http://www.w3.org/1999/xlink" width="500" zoomAndPan="magnify" viewBox="0 0 375 374.999991" height="500" preserveAspectRatio="xMidYMid meet" version="1.0"><defs><clipPath id="a589bc548a"><path d="M 37.5 37.5 L 337.5 37.5 L 337.5 337.5 L 37.5 337.5 Z M 37.5 37.5 " clip-rule="nonzero"/></clipPath></defs><g clip-path="url(#a589bc548a)"><path fill="#000000" d="M 187.5 37.5 C 104.738281 37.5 37.5 104.761719 37.5 187.554688 C 37.5 270.34375 104.738281 337.5 187.5 337.5 C 270.261719 337.5 337.5 270.34375 337.5 187.554688 C 337.5 104.761719 270.261719 37.5 187.5 37.5 Z M 187.5 51.035156 C 242.1875 51.035156 289.238281 83.242188 310.972656 129.683594 C 305.976562 135.023438 301.023438 140.398438 296.058594 145.882812 C 289.351562 144.96875 282.316406 143.867188 275.710938 143.113281 C 272.140625 142.972656 268.765625 146.097656 268.625 149.667969 C 268.484375 153.238281 271.609375 156.613281 275.175781 156.753906 L 285.085938 158.140625 C 281.777344 161.90625 278.433594 165.71875 275.175781 169.542969 C 269.816406 168.683594 264.144531 167.632812 258.878906 166.984375 C 255.308594 166.734375 251.832031 169.753906 251.582031 173.328125 C 251.328125 176.898438 254.347656 180.375 257.917969 180.625 L 265.058594 181.796875 C 261.636719 185.976562 258.257812 190.136719 254.9375 194.375 C 249.320312 194.375 243.558594 194.375 237.996094 194.375 C 234.425781 194.542969 231.328125 197.941406 231.496094 201.515625 C 231.664062 205.085938 235.066406 208.183594 238.636719 208.015625 L 244.601562 208.015625 C 241.230469 212.554688 237.90625 217.0625 234.695312 221.65625 C 229.007812 221.65625 223.175781 221.65625 217.542969 221.65625 C 213.972656 221.824219 210.875 225.226562 211.042969 228.796875 C 211.210938 232.367188 214.609375 235.464844 218.183594 235.296875 L 225.53125 235.296875 C 222.578125 239.824219 219.660156 244.367188 216.902344 248.9375 C 211.464844 248.9375 205.882812 248.9375 200.496094 248.9375 C 196.925781 249.105469 193.828125 252.507812 193.996094 256.078125 C 194.164062 259.652344 197.566406 262.75 201.136719 262.578125 L 209.019531 262.578125 C 206.523438 267.109375 204.148438 271.65625 201.882812 276.222656 C 196.90625 276.222656 191.78125 276.222656 186.859375 276.222656 C 183.289062 276.386719 180.191406 279.789062 180.359375 283.363281 C 180.527344 286.933594 183.929688 290.03125 187.5 289.863281 L 195.488281 289.863281 C 193.5 294.398438 191.566406 298.941406 189.84375 303.503906 C 183.199219 303.503906 176.410156 303.503906 169.816406 303.503906 C 166.246094 303.671875 163.148438 307.070312 163.316406 310.644531 C 163.480469 314.214844 166.882812 317.3125 170.453125 317.144531 L 185.15625 317.144531 C 184.457031 319.375 183.867188 321.621094 183.238281 323.859375 C 130.957031 322.257812 86.117188 291.308594 64.667969 246.914062 C 65.671875 239.523438 66.59375 231.980469 67.542969 224.53125 C 72.589844 219.21875 77.582031 213.824219 82.671875 208.441406 L 85.546875 216.964844 C 86.691406 220.371094 90.828125 222.425781 94.230469 221.28125 C 97.632812 220.140625 99.6875 216 98.542969 212.597656 L 93.324219 197.039062 C 96.476562 193.640625 99.6875 190.25 102.804688 186.804688 L 106 196.503906 C 107.144531 199.910156 111.28125 201.964844 114.683594 200.820312 C 118.085938 199.675781 120.140625 195.539062 119 192.136719 L 113.246094 174.976562 C 116.914062 170.746094 120.570312 166.519531 124.113281 162.1875 L 126.457031 169.222656 C 127.597656 172.625 131.734375 174.683594 135.136719 173.539062 C 138.542969 172.394531 140.597656 168.257812 139.453125 164.851562 L 134.234375 149.1875 C 137.792969 144.5 141.234375 139.742188 144.566406 134.90625 L 146.910156 141.941406 C 148.054688 145.34375 152.191406 147.398438 155.59375 146.257812 C 158.996094 145.113281 161.050781 140.972656 159.90625 137.570312 L 154.15625 120.304688 C 156.515625 116.449219 158.796875 112.550781 160.972656 108.582031 L 164.382812 115.511719 C 165.75 119.039062 170.40625 120.835938 173.789062 119.144531 C 177.171875 117.453125 178.527344 112.648438 176.527344 109.433594 L 168.535156 93.554688 C 170.144531 90.105469 171.78125 86.652344 173.222656 83.113281 L 175.25 85.882812 C 177.304688 88.964844 182.074219 89.773438 185.027344 87.542969 C 187.984375 85.308594 188.515625 80.5 186.113281 77.675781 L 178.765625 67.871094 C 180.546875 62.402344 181.992188 56.84375 183.34375 51.140625 C 184.792969 51.082031 186.261719 51.0625 187.5 51.035156 Z M 169.070312 52.3125 C 168.265625 55.371094 167.453125 58.382812 166.511719 61.371094 C 161.964844 61.371094 157.265625 61.371094 152.769531 61.371094 C 149.199219 61.539062 146.101562 64.941406 146.269531 68.511719 C 146.4375 72.085938 149.839844 75.183594 153.410156 75.015625 L 161.71875 75.015625 C 160.355469 78.476562 158.886719 81.863281 157.351562 85.246094 C 150.171875 85.246094 142.851562 85.246094 135.722656 85.246094 C 132.152344 85.410156 129.058594 88.8125 129.222656 92.386719 C 129.390625 95.957031 132.792969 99.054688 136.363281 98.886719 L 150.640625 98.886719 C 148.289062 103.289062 145.675781 107.605469 143.074219 111.886719 C 136.226562 110.9375 129.046875 109.792969 122.300781 109.011719 C 118.730469 108.871094 115.355469 111.992188 115.214844 115.5625 C 115.078125 119.136719 118.199219 122.511719 121.769531 122.652344 L 134.980469 124.570312 C 131.664062 129.460938 128.222656 134.300781 124.644531 139.0625 C 117.222656 137.183594 109.515625 134.25 102.167969 132.882812 C 98.863281 132.824219 95.734375 135.515625 95.292969 138.789062 C 94.851562 142.066406 97.15625 145.488281 100.355469 146.308594 L 115.589844 150.679688 C 111.492188 155.765625 107.324219 160.835938 103.019531 165.8125 C 96.992188 164.035156 90.675781 161.121094 84.695312 160.164062 C 81.542969 160.363281 78.726562 163.023438 78.351562 166.160156 C 77.976562 169.292969 80.082031 172.546875 83.097656 173.484375 L 93.21875 176.894531 C 90.234375 180.210938 87.195312 183.523438 84.160156 186.808594 C 77.597656 184.921875 70.761719 181.671875 64.238281 180.625 C 61.089844 180.824219 58.273438 183.488281 57.898438 186.621094 C 57.523438 189.757812 59.628906 193.011719 62.640625 193.949219 L 73.828125 197.679688 C 69.621094 202.148438 65.476562 206.65625 61.257812 211.105469 L 52.839844 208.976562 C 51.742188 201.992188 51.136719 194.847656 51.136719 187.554688 C 51.136719 118.394531 102.429688 61.320312 169.070312 52.3125 Z M 316.621094 143.753906 C 321.269531 157.511719 323.863281 172.214844 323.863281 187.554688 C 323.863281 253.804688 276.777344 308.890625 214.238281 321.300781 C 214.160156 319.265625 213.109375 317.289062 211.46875 316.078125 L 202.628906 308.40625 C 204.511719 303.457031 206.578125 298.4375 208.808594 293.484375 L 216.796875 301.480469 C 219.316406 304.078125 223.996094 304.101562 226.542969 301.53125 C 229.085938 298.957031 229.011719 294.273438 226.386719 291.78125 L 215.09375 280.484375 C 217.480469 275.78125 220.007812 271.105469 222.65625 266.417969 L 230.433594 274.199219 C 232.953125 276.796875 237.632812 276.820312 240.179688 274.25 C 242.722656 271.675781 242.648438 266.992188 240.019531 264.5 L 229.792969 254.269531 C 232.738281 249.457031 235.78125 244.664062 238.957031 239.882812 L 246.945312 249.792969 C 249.175781 252.585938 253.746094 253.09375 256.535156 250.859375 C 259.324219 248.628906 259.832031 244.058594 257.597656 241.269531 L 247.050781 228.054688 C 250.867188 222.636719 254.832031 217.210938 258.878906 211.855469 L 267.402344 222.511719 C 269.632812 225.300781 274.199219 225.8125 276.988281 223.578125 C 279.777344 221.347656 280.285156 216.777344 278.054688 213.984375 L 267.507812 200.769531 C 270.460938 197.023438 273.417969 193.289062 276.457031 189.582031 L 279.863281 199.917969 C 281.007812 203.320312 285.144531 205.378906 288.546875 204.234375 C 291.949219 203.089844 294.007812 198.953125 292.863281 195.546875 L 286.789062 177.21875 C 289.980469 173.472656 293.132812 169.726562 296.378906 166.027344 L 300.214844 179.136719 C 301.1875 182.597656 305.222656 184.855469 308.683594 183.878906 C 312.140625 182.902344 314.398438 178.867188 313.421875 175.40625 L 307.246094 153.878906 C 310.34375 150.457031 313.496094 147.125 316.621094 143.753906 Z M 316.621094 143.753906 " fill-opacity="1" fill-rule="nonzero"/></g></svg>