<svg xmlns="http://www.w3.org/2000/svg" xmlns:xlink="http://www.w3.org/1999/xlink" width="500" zoomAndPan="magnify" viewBox="0 0 375 374.999991" height="500" preserveAspectRatio="xMidYMid meet" version="1.0"><defs><clipPath id="9d84d799d3"><path d="M 78.5625 39 L 296.8125 39 L 296.8125 336 L 78.5625 336 Z M 78.5625 39 " clip-rule="nonzero"/></clipPath></defs><g clip-path="url(#9d84d799d3)"><path fill="#000000" d="M 187.671875 203.617188 C 155.375 203.617188 129.175781 177.460938 129.175781 145.1875 C 129.175781 112.960938 155.375 86.808594 187.671875 86.808594 C 220 86.808594 246.152344 112.960938 246.152344 145.1875 C 246.152344 177.460938 220 203.617188 187.671875 203.617188 Z M 187.671875 39.472656 C 127.417969 39.472656 78.582031 88.226562 78.582031 148.375 C 78.582031 208.558594 187.671875 335.117188 187.671875 335.117188 C 187.671875 335.117188 296.792969 208.558594 296.792969 148.375 C 296.792969 88.226562 247.957031 39.472656 187.671875 39.472656 " fill-opacity="1" fill-rule="nonzero"/></g></svg>