<svg xmlns="http://www.w3.org/2000/svg" xmlns:xlink="http://www.w3.org/1999/xlink" width="500" zoomAndPan="magnify" viewBox="0 0 375 374.999991" height="500" preserveAspectRatio="xMidYMid meet" version="1.0"><defs><clipPath id="733ce0031a"><path d="M 37.5 37.5 L 337.5 37.5 L 337.5 337.5 L 37.5 337.5 Z M 37.5 37.5 " clip-rule="nonzero"/></clipPath></defs><g clip-path="url(#733ce0031a)"><path fill="#000000" d="M 187.5 59.765625 C 189.324219 59.765625 191.148438 59.808594 192.96875 59.886719 C 194.792969 59.964844 196.613281 60.082031 198.429688 60.242188 C 200.246094 60.398438 202.058594 60.59375 203.867188 60.828125 C 205.675781 61.0625 207.480469 61.335938 209.277344 61.648438 C 211.074219 61.960938 212.863281 62.3125 214.648438 62.699219 C 216.429688 63.089844 218.203125 63.515625 219.964844 63.980469 C 221.730469 64.445312 223.484375 64.949219 225.226562 65.488281 C 226.96875 66.027344 228.699219 66.605469 230.414062 67.21875 C 232.132812 67.832031 233.835938 68.480469 235.527344 69.167969 C 237.214844 69.855469 238.890625 70.578125 240.550781 71.335938 C 242.207031 72.09375 243.851562 72.890625 245.476562 73.71875 C 247.101562 74.546875 248.707031 75.410156 250.292969 76.308594 C 251.882812 77.203125 253.449219 78.136719 255 79.101562 C 256.546875 80.066406 258.074219 81.0625 259.578125 82.09375 C 261.085938 83.125 262.566406 84.1875 264.027344 85.28125 C 265.484375 86.371094 266.921875 87.496094 268.332031 88.652344 C 269.746094 89.808594 271.132812 90.992188 272.492188 92.207031 C 273.855469 93.421875 275.1875 94.664062 276.496094 95.9375 C 277.804688 97.207031 279.082031 98.507812 280.335938 99.832031 C 281.585938 101.160156 282.808594 102.511719 284.003906 103.890625 C 285.199219 105.269531 286.363281 106.675781 287.496094 108.101562 C 288.628906 109.53125 289.734375 110.984375 290.804688 112.460938 C 291.878906 113.9375 292.917969 115.433594 293.925781 116.957031 C 294.933594 118.476562 295.90625 120.015625 296.847656 121.578125 C 297.789062 123.140625 298.699219 124.722656 299.570312 126.324219 C 300.445312 127.925781 301.285156 129.542969 302.089844 131.183594 C 302.894531 132.820312 303.664062 134.472656 304.394531 136.144531 C 305.128906 137.8125 305.828125 139.496094 306.488281 141.199219 C 307.152344 142.898438 307.777344 144.609375 308.363281 146.335938 C 308.953125 148.0625 309.503906 149.800781 310.015625 151.550781 C 310.53125 153.304688 311.007812 155.0625 311.445312 156.835938 C 311.882812 158.605469 312.28125 160.382812 312.644531 162.171875 C 313.007812 163.960938 313.332031 165.753906 313.617188 167.554688 C 313.902344 169.359375 314.148438 171.164062 314.355469 172.976562 C 314.5625 174.789062 314.734375 176.605469 314.863281 178.425781 C 314.992188 180.242188 315.082031 182.066406 315.136719 183.886719 C 315.1875 185.710938 315.199219 187.535156 315.175781 189.359375 C 315.148438 191.183594 315.082031 193.003906 314.980469 194.828125 C 314.875 196.648438 314.734375 198.464844 314.550781 200.28125 C 314.367188 202.097656 314.148438 203.90625 313.886719 205.710938 C 313.628906 207.515625 313.332031 209.316406 312.996094 211.109375 C 312.65625 212.902344 312.28125 214.6875 311.871094 216.464844 C 311.457031 218.238281 311.007812 220.007812 310.515625 221.765625 C 310.027344 223.523438 309.503906 225.269531 308.9375 227.003906 C 308.375 228.738281 307.777344 230.460938 307.136719 232.167969 C 306.5 233.878906 305.828125 235.574219 305.117188 237.253906 C 304.40625 238.933594 303.664062 240.597656 302.882812 242.246094 C 302.101562 243.894531 301.285156 245.527344 300.433594 247.140625 C 299.582031 248.753906 298.699219 250.347656 297.777344 251.921875 C 296.859375 253.496094 295.90625 255.054688 294.921875 256.585938 C 293.933594 258.121094 292.917969 259.636719 291.867188 261.125 C 290.816406 262.617188 289.734375 264.085938 288.621094 265.53125 C 287.507812 266.976562 286.363281 268.394531 285.1875 269.792969 C 284.015625 271.1875 282.808594 272.558594 281.578125 273.902344 C 280.34375 275.246094 279.082031 276.5625 277.792969 277.851562 C 276.503906 279.144531 275.1875 280.40625 273.84375 281.640625 C 272.5 282.875 271.132812 284.078125 269.738281 285.253906 C 268.339844 286.429688 266.921875 287.574219 265.476562 288.6875 C 264.035156 289.800781 262.566406 290.882812 261.074219 291.9375 C 259.585938 292.988281 258.074219 294.007812 256.539062 294.992188 C 255.003906 295.980469 253.449219 296.933594 251.875 297.855469 C 250.300781 298.773438 248.707031 299.660156 247.09375 300.511719 C 245.480469 301.363281 243.851562 302.179688 242.203125 302.964844 C 240.554688 303.746094 238.890625 304.492188 237.210938 305.203125 C 235.285156 306.015625 233.339844 306.78125 231.375 307.5 C 229.410156 308.21875 227.429688 308.886719 225.433594 309.507812 C 223.4375 310.128906 221.425781 310.699219 219.402344 311.222656 C 217.378906 311.746094 215.339844 312.21875 213.292969 312.640625 C 211.246094 313.0625 209.1875 313.433594 207.121094 313.753906 C 205.054688 314.074219 202.984375 314.347656 200.902344 314.566406 C 198.824219 314.785156 196.738281 314.953125 194.652344 315.070312 C 192.5625 315.1875 190.476562 315.253906 188.382812 315.265625 C 186.292969 315.28125 184.203125 315.246094 182.113281 315.15625 C 180.023438 315.066406 177.9375 314.929688 175.855469 314.738281 C 173.773438 314.546875 171.699219 314.304688 169.628906 314.015625 C 167.554688 313.722656 165.496094 313.378906 163.441406 312.984375 C 161.386719 312.589844 159.34375 312.148438 157.3125 311.652344 C 155.28125 311.160156 153.261719 310.613281 151.257812 310.023438 C 149.25 309.429688 147.261719 308.785156 145.289062 308.097656 C 143.316406 307.40625 141.359375 306.667969 139.421875 305.878906 C 137.484375 305.09375 135.566406 304.257812 133.671875 303.378906 C 131.773438 302.496094 129.902344 301.570312 128.050781 300.597656 C 126.199219 299.625 124.375 298.605469 122.574219 297.542969 C 120.773438 296.480469 118.996094 295.375 117.25 294.226562 C 115.503906 293.074219 113.789062 291.882812 112.097656 290.648438 C 110.410156 289.414062 108.753906 288.140625 107.128906 286.824219 C 105.503906 285.511719 103.910156 284.15625 102.351562 282.761719 C 100.792969 281.371094 99.269531 279.9375 97.78125 278.46875 C 96.292969 277 94.839844 275.496094 93.425781 273.957031 C 92.007812 272.417969 90.632812 270.84375 89.296875 269.238281 C 87.957031 267.628906 86.660156 265.992188 85.402344 264.320312 C 84.144531 262.648438 82.929688 260.949219 81.757812 259.21875 C 80.582031 257.488281 79.453125 255.730469 78.363281 253.945312 C 77.277344 252.15625 76.234375 250.347656 75.234375 248.507812 C 74.238281 246.671875 73.285156 244.808594 72.378906 242.925781 C 71.472656 241.042969 70.609375 239.136719 69.796875 237.210938 C 68.984375 235.285156 68.21875 233.339844 67.5 231.375 C 66.78125 229.410156 66.113281 227.429688 65.492188 225.433594 C 64.871094 223.4375 64.300781 221.425781 63.777344 219.402344 C 63.253906 217.378906 62.78125 215.339844 62.359375 213.292969 C 61.9375 211.246094 61.566406 209.1875 61.246094 207.121094 C 60.925781 205.054688 60.652344 202.984375 60.433594 200.902344 C 60.214844 198.824219 60.046875 196.738281 59.929688 194.652344 C 59.8125 192.5625 59.746094 190.476562 59.734375 188.382812 C 59.71875 186.292969 59.753906 184.203125 59.84375 182.113281 C 59.929688 180.023438 60.070312 177.9375 60.261719 175.855469 C 60.453125 173.773438 60.695312 171.699219 60.984375 169.625 C 61.277344 167.554688 61.621094 165.496094 62.015625 163.441406 C 62.410156 161.386719 62.851562 159.34375 63.347656 157.3125 C 63.839844 155.28125 64.386719 153.261719 64.976562 151.257812 C 65.570312 149.25 66.214844 147.261719 66.902344 145.289062 C 67.59375 143.316406 68.332031 141.359375 69.121094 139.421875 C 69.90625 137.484375 70.742188 135.566406 71.621094 133.671875 C 72.503906 131.773438 73.429688 129.902344 74.402344 128.050781 C 75.375 126.199219 76.394531 124.375 77.457031 122.574219 C 78.519531 120.773438 79.625 118.996094 80.773438 117.25 C 81.925781 115.503906 83.117188 113.789062 84.351562 112.097656 C 85.585938 110.410156 86.859375 108.753906 88.175781 107.128906 C 89.488281 105.503906 90.84375 103.910156 92.238281 102.351562 C 93.628906 100.792969 95.0625 99.269531 96.53125 97.78125 C 98 96.292969 99.503906 94.839844 101.042969 93.425781 C 102.582031 92.007812 104.15625 90.632812 105.761719 89.296875 C 107.371094 87.957031 109.007812 86.660156 110.679688 85.402344 C 112.351562 84.144531 114.050781 82.929688 115.78125 81.757812 C 117.511719 80.582031 119.269531 79.453125 121.054688 78.363281 C 122.84375 77.277344 124.652344 76.234375 126.492188 75.234375 C 128.328125 74.238281 130.191406 73.285156 132.074219 72.378906 C 133.957031 71.472656 135.863281 70.609375 137.789062 69.796875 C 145.652344 66.46875 153.769531 63.960938 162.136719 62.273438 C 170.507812 60.582031 178.960938 59.746094 187.5 59.765625 M 187.5 37.5 C 104.660156 37.5 37.5 104.660156 37.5 187.5 C 37.5 270.339844 104.660156 337.5 187.5 337.5 C 270.339844 337.5 337.5 270.34375 337.5 187.5 C 337.5 104.652344 270.339844 37.5 187.5 37.5 Z M 187.5 37.5 " fill-opacity="1" fill-rule="nonzero"/></g><path fill="#000000" d="M 229.992188 241.792969 C 228.515625 241.792969 227.09375 241.511719 225.730469 240.945312 C 224.367188 240.378906 223.164062 239.574219 222.121094 238.527344 L 179.625 196.035156 C 178.582031 194.992188 177.777344 193.789062 177.214844 192.425781 C 176.648438 191.0625 176.367188 189.644531 176.367188 188.167969 L 176.367188 100.148438 C 176.367188 99.417969 176.4375 98.695312 176.582031 97.976562 C 176.722656 97.257812 176.933594 96.5625 177.214844 95.886719 C 177.496094 95.210938 177.835938 94.570312 178.242188 93.964844 C 178.648438 93.355469 179.109375 92.792969 179.628906 92.277344 C 180.144531 91.757812 180.707031 91.296875 181.316406 90.890625 C 181.921875 90.484375 182.5625 90.144531 183.238281 89.863281 C 183.914062 89.582031 184.609375 89.371094 185.328125 89.230469 C 186.046875 89.085938 186.769531 89.015625 187.5 89.015625 C 188.230469 89.015625 188.953125 89.085938 189.671875 89.230469 C 190.390625 89.371094 191.085938 89.582031 191.761719 89.863281 C 192.4375 90.144531 193.078125 90.484375 193.683594 90.890625 C 194.292969 91.296875 194.855469 91.757812 195.371094 92.277344 C 195.890625 92.792969 196.351562 93.355469 196.757812 93.964844 C 197.164062 94.570312 197.503906 95.210938 197.785156 95.886719 C 198.066406 96.5625 198.277344 97.257812 198.417969 97.976562 C 198.5625 98.695312 198.632812 99.417969 198.632812 100.148438 L 198.632812 183.558594 L 237.890625 222.816406 C 238.667969 223.59375 239.320312 224.46875 239.839844 225.4375 C 240.359375 226.410156 240.726562 227.4375 240.941406 228.515625 C 241.15625 229.597656 241.207031 230.683594 241.101562 231.78125 C 240.992188 232.875 240.726562 233.933594 240.304688 234.949219 C 239.886719 235.96875 239.324219 236.902344 238.625 237.753906 C 237.925781 238.605469 237.121094 239.335938 236.203125 239.949219 C 235.289062 240.558594 234.304688 241.023438 233.25 241.34375 C 232.195312 241.664062 231.117188 241.824219 230.015625 241.824219 Z M 229.992188 241.792969 " fill-opacity="1" fill-rule="nonzero"/></svg>