<svg xmlns="http://www.w3.org/2000/svg" xmlns:xlink="http://www.w3.org/1999/xlink" width="500" zoomAndPan="magnify" viewBox="0 0 375 374.999991" height="500" preserveAspectRatio="xMidYMid meet" version="1.0"><defs><clipPath id="6e37d0b274"><path d="M 37.5 37.5 L 337.5 37.5 L 337.5 337.5 L 37.5 337.5 Z M 37.5 37.5 " clip-rule="nonzero"/></clipPath></defs><path fill="#000000" d="M 187.5 99.199219 C 159.199219 99.199219 136.101562 122.199219 136.101562 150.5 C 136.101562 178.898438 159.199219 201.898438 187.5 201.898438 C 215.800781 201.898438 238.898438 178.898438 238.898438 150.5 C 238.898438 122.199219 215.800781 99.199219 187.5 99.199219 Z M 187.5 99.199219 " fill-opacity="1" fill-rule="nonzero"/><g clip-path="url(#6e37d0b274)"><path fill="#000000" d="M 187.398438 37.601562 C 104.800781 37.601562 37.5 104.800781 37.5 187.5 C 37.5 233.5 58.398438 274.699219 91.101562 302.199219 C 91.101562 302.199219 91.101562 302.199219 91.101562 302.300781 C 117.199219 324.199219 150.800781 337.398438 187.398438 337.398438 C 239.601562 337.398438 287.199219 311 314.800781 266.699219 C 329.699219 242.898438 337.5 215.601562 337.5 187.5 C 337.5 159.398438 329.699219 132 314.800781 108.300781 C 287.199219 64 239.601562 37.601562 187.398438 37.601562 Z M 297.898438 256.101562 C 293.101562 263.800781 287.5 270.601562 281.398438 277 C 266.199219 245.800781 233.898438 225 198.199219 225 L 176.800781 225 C 152 225 128.699219 234.699219 111.199219 252.199219 C 103.898438 259.398438 98.101562 267.898438 93.601562 277.097656 C 71.300781 253.800781 57.5 222.300781 57.5 187.5 C 57.5 115.898438 115.800781 57.601562 187.398438 57.601562 C 232.699219 57.601562 273.898438 80.5 297.898438 118.898438 C 310.699219 139.5 317.5 163.199219 317.5 187.5 C 317.5 211.800781 310.699219 235.5 297.898438 256.101562 Z M 297.898438 256.101562 " fill-opacity="1" fill-rule="nonzero"/></g></svg>