<svg xmlns="http://www.w3.org/2000/svg" xmlns:xlink="http://www.w3.org/1999/xlink" width="500" zoomAndPan="magnify" viewBox="0 0 375 374.999991" height="500" preserveAspectRatio="xMidYMid meet" version="1.0"><defs><clipPath id="13eb994d3e"><path d="M 37.5 91.226562 L 337.5 91.226562 L 337.5 283.976562 L 37.5 283.976562 Z M 37.5 91.226562 " clip-rule="nonzero"/></clipPath></defs><g clip-path="url(#13eb994d3e)"><path fill="#000000" d="M 187.5 91.226562 C 153.003906 91.226562 121.984375 129.777344 95.777344 176.359375 L 48.445312 260.953125 L 48.445312 254.53125 L 37.746094 254.53125 L 37.746094 283.976562 L 48.445312 283.976562 L 48.445312 278.085938 L 103.53125 181.710938 L 169.582031 140.753906 C 181.617188 133.257812 182.417969 131.917969 187.5 131.917969 C 192.582031 131.917969 193.382812 133.523438 205.417969 140.753906 L 271.46875 181.710938 L 326.554688 278.085938 L 326.554688 283.976562 L 337.253906 283.976562 L 337.253906 254.261719 L 326.554688 254.261719 L 326.554688 260.953125 L 278.957031 176.359375 C 253.015625 129.777344 221.996094 91.226562 187.5 91.226562 Z M 149.527344 162.4375 L 111.019531 185.996094 L 70.640625 278.625 L 304.359375 278.625 L 263.980469 185.996094 L 225.742188 162.4375 L 233.496094 237.664062 C 234.03125 244.089844 228.949219 249.441406 223.332031 249.441406 L 152.199219 249.441406 C 146.585938 249.441406 141.503906 244.089844 142.039062 237.664062 Z M 149.527344 162.4375 " fill-opacity="1" fill-rule="nonzero"/></g></svg>