<svg xmlns="http://www.w3.org/2000/svg" xmlns:xlink="http://www.w3.org/1999/xlink" width="500" zoomAndPan="magnify" viewBox="0 0 375 374.999991" height="500" preserveAspectRatio="xMidYMid meet" version="1.0"><defs><clipPath id="c8e7d28c07"><path d="M 81 42.9375 L 294 42.9375 L 294 180 L 81 180 Z M 81 42.9375 " clip-rule="nonzero"/></clipPath></defs><path fill="#000000" d="M 304.425781 153.203125 L 283.167969 153.203125 C 282.46875 153.203125 281.777344 153.269531 281.09375 153.40625 C 280.40625 153.542969 279.742188 153.746094 279.097656 154.011719 C 278.453125 154.28125 277.839844 154.609375 277.261719 154.996094 C 276.679688 155.386719 276.144531 155.824219 275.648438 156.320312 C 275.15625 156.816406 274.714844 157.351562 274.328125 157.933594 C 273.941406 158.515625 273.613281 159.128906 273.347656 159.773438 C 273.078125 160.417969 272.878906 161.085938 272.742188 161.769531 C 272.605469 162.457031 272.535156 163.148438 272.535156 163.847656 L 272.535156 242.925781 C 272.535156 243.625 272.605469 244.316406 272.742188 245.003906 C 272.878906 245.6875 273.078125 246.355469 273.347656 247 C 273.613281 247.644531 273.941406 248.257812 274.328125 248.839844 C 274.714844 249.421875 275.15625 249.957031 275.648438 250.453125 C 276.144531 250.945312 276.679688 251.386719 277.261719 251.777344 C 277.839844 252.164062 278.453125 252.492188 279.097656 252.761719 C 279.742188 253.027344 280.40625 253.230469 281.09375 253.367188 C 281.777344 253.5 282.46875 253.570312 283.167969 253.570312 L 304.425781 253.570312 C 305.46875 253.570312 306.511719 253.519531 307.550781 253.417969 C 308.589844 253.3125 309.621094 253.160156 310.648438 252.957031 C 311.671875 252.753906 312.683594 252.5 313.683594 252.195312 C 314.683594 251.890625 315.664062 251.539062 316.628906 251.140625 C 317.59375 250.738281 318.535156 250.292969 319.457031 249.800781 C 320.378906 249.308594 321.273438 248.769531 322.140625 248.1875 C 323.011719 247.609375 323.847656 246.984375 324.65625 246.320312 C 325.460938 245.660156 326.234375 244.957031 326.972656 244.21875 C 327.710938 243.476562 328.414062 242.703125 329.074219 241.894531 C 329.738281 241.085938 330.359375 240.25 330.941406 239.378906 C 331.519531 238.511719 332.054688 237.613281 332.550781 236.691406 C 333.042969 235.769531 333.488281 234.824219 333.886719 233.859375 C 334.285156 232.894531 334.636719 231.910156 334.941406 230.910156 C 335.246094 229.90625 335.496094 228.894531 335.703125 227.867188 C 335.90625 226.84375 336.058594 225.808594 336.160156 224.769531 C 336.261719 223.730469 336.3125 222.6875 336.3125 221.640625 L 336.3125 185.132812 C 336.3125 184.085938 336.261719 183.042969 336.160156 182.003906 C 336.058594 180.960938 335.90625 179.929688 335.703125 178.902344 C 335.496094 177.878906 335.246094 176.863281 334.941406 175.863281 C 334.636719 174.863281 334.285156 173.878906 333.886719 172.914062 C 333.488281 171.949219 333.042969 171.003906 332.550781 170.082031 C 332.054688 169.160156 331.519531 168.261719 330.941406 167.394531 C 330.359375 166.523438 329.738281 165.683594 329.074219 164.875 C 328.414062 164.070312 327.710938 163.292969 326.972656 162.554688 C 326.234375 161.816406 325.460938 161.113281 324.65625 160.449219 C 323.847656 159.789062 323.011719 159.164062 322.140625 158.585938 C 321.273438 158.003906 320.378906 157.464844 319.457031 156.972656 C 318.535156 156.480469 317.59375 156.035156 316.628906 155.632812 C 315.664062 155.234375 314.683594 154.882812 313.683594 154.578125 C 312.683594 154.273438 311.671875 154.019531 310.648438 153.816406 C 309.621094 153.613281 308.589844 153.460938 307.550781 153.355469 C 306.511719 153.253906 305.46875 153.203125 304.425781 153.203125 Z M 304.425781 153.203125 " fill-opacity="1" fill-rule="nonzero"/><path fill="#000000" d="M 91.832031 153.203125 L 70.574219 153.203125 C 69.53125 153.203125 68.488281 153.253906 67.449219 153.355469 C 66.410156 153.460938 65.378906 153.613281 64.351562 153.816406 C 63.328125 154.019531 62.316406 154.273438 61.316406 154.578125 C 60.316406 154.882812 59.335938 155.234375 58.371094 155.632812 C 57.40625 156.035156 56.464844 156.480469 55.542969 156.972656 C 54.621094 157.464844 53.726562 158.003906 52.859375 158.585938 C 51.988281 159.164062 51.152344 159.789062 50.34375 160.449219 C 49.535156 161.113281 48.765625 161.816406 48.027344 162.554688 C 47.289062 163.292969 46.585938 164.070312 45.925781 164.875 C 45.261719 165.683594 44.640625 166.523438 44.058594 167.394531 C 43.480469 168.261719 42.945312 169.160156 42.449219 170.082031 C 41.957031 171.003906 41.511719 171.949219 41.113281 172.914062 C 40.714844 173.878906 40.363281 174.863281 40.058594 175.863281 C 39.753906 176.863281 39.503906 177.878906 39.296875 178.902344 C 39.09375 179.929688 38.941406 180.960938 38.839844 182.003906 C 38.738281 183.042969 38.6875 184.085938 38.6875 185.132812 L 38.6875 221.640625 C 38.6875 222.6875 38.738281 223.730469 38.839844 224.769531 C 38.941406 225.808594 39.09375 226.84375 39.296875 227.867188 C 39.503906 228.894531 39.753906 229.90625 40.058594 230.910156 C 40.363281 231.910156 40.714844 232.894531 41.113281 233.859375 C 41.511719 234.824219 41.957031 235.769531 42.449219 236.691406 C 42.945312 237.613281 43.480469 238.511719 44.058594 239.378906 C 44.640625 240.25 45.261719 241.085938 45.925781 241.894531 C 46.585938 242.703125 47.289062 243.476562 48.027344 244.21875 C 48.765625 244.957031 49.535156 245.660156 50.34375 246.320312 C 51.152344 246.984375 51.988281 247.609375 52.859375 248.1875 C 53.726562 248.769531 54.621094 249.308594 55.542969 249.800781 C 56.464844 250.292969 57.40625 250.738281 58.371094 251.140625 C 59.335938 251.539062 60.316406 251.890625 61.316406 252.195312 C 62.316406 252.5 63.328125 252.753906 64.351562 252.957031 C 65.378906 253.160156 66.410156 253.3125 67.449219 253.417969 C 68.488281 253.519531 69.53125 253.570312 70.574219 253.570312 L 91.832031 253.570312 C 92.53125 253.570312 93.222656 253.5 93.90625 253.367188 C 94.59375 253.230469 95.257812 253.027344 95.902344 252.761719 C 96.546875 252.492188 97.160156 252.164062 97.738281 251.777344 C 98.320312 251.386719 98.855469 250.945312 99.351562 250.453125 C 99.84375 249.957031 100.285156 249.421875 100.671875 248.839844 C 101.058594 248.257812 101.386719 247.644531 101.652344 247 C 101.921875 246.355469 102.121094 245.6875 102.257812 245.003906 C 102.394531 244.316406 102.464844 243.625 102.464844 242.925781 L 102.464844 163.847656 C 102.464844 163.148438 102.394531 162.457031 102.257812 161.769531 C 102.121094 161.085938 101.921875 160.417969 101.652344 159.773438 C 101.386719 159.128906 101.058594 158.515625 100.671875 157.933594 C 100.285156 157.351562 99.84375 156.816406 99.351562 156.320312 C 98.855469 155.824219 98.320312 155.386719 97.738281 154.996094 C 97.160156 154.609375 96.546875 154.28125 95.902344 154.011719 C 95.257812 153.746094 94.59375 153.542969 93.90625 153.40625 C 93.222656 153.269531 92.53125 153.203125 91.832031 153.203125 Z M 91.832031 153.203125 " fill-opacity="1" fill-rule="nonzero"/><g clip-path="url(#c8e7d28c07)"><path fill="#000000" d="M 283.167969 179.492188 C 282.46875 179.492188 281.777344 179.425781 281.09375 179.289062 C 280.40625 179.152344 279.742188 178.949219 279.097656 178.683594 C 278.453125 178.414062 277.839844 178.085938 277.261719 177.699219 C 276.679688 177.308594 276.144531 176.867188 275.648438 176.375 C 275.15625 175.878906 274.714844 175.34375 274.328125 174.761719 C 273.941406 174.179688 273.613281 173.566406 273.347656 172.921875 C 273.078125 172.277344 272.878906 171.609375 272.742188 170.925781 C 272.605469 170.238281 272.535156 169.546875 272.535156 168.847656 C 272.535156 111.160156 234.375 64.222656 187.5 64.222656 C 140.625 64.222656 102.464844 111.160156 102.464844 168.847656 C 102.464844 169.546875 102.394531 170.238281 102.257812 170.925781 C 102.121094 171.609375 101.921875 172.277344 101.652344 172.921875 C 101.386719 173.566406 101.058594 174.179688 100.671875 174.761719 C 100.285156 175.34375 99.84375 175.878906 99.351562 176.375 C 98.855469 176.867188 98.320312 177.308594 97.738281 177.699219 C 97.160156 178.085938 96.546875 178.414062 95.902344 178.683594 C 95.257812 178.949219 94.59375 179.152344 93.90625 179.289062 C 93.222656 179.425781 92.53125 179.492188 91.832031 179.492188 C 91.136719 179.492188 90.445312 179.425781 89.761719 179.289062 C 89.074219 179.152344 88.410156 178.949219 87.765625 178.683594 C 87.121094 178.414062 86.507812 178.085938 85.929688 177.699219 C 85.347656 177.308594 84.8125 176.867188 84.316406 176.375 C 83.824219 175.878906 83.382812 175.34375 82.996094 174.761719 C 82.609375 174.179688 82.28125 173.566406 82.011719 172.921875 C 81.746094 172.277344 81.542969 171.609375 81.410156 170.925781 C 81.273438 170.238281 81.203125 169.546875 81.203125 168.847656 C 81.203125 99.453125 128.824219 42.9375 187.5 42.9375 C 246.175781 42.9375 293.796875 99.453125 293.796875 168.847656 C 293.796875 169.546875 293.726562 170.238281 293.589844 170.925781 C 293.457031 171.609375 293.253906 172.277344 292.988281 172.921875 C 292.71875 173.566406 292.390625 174.179688 292.003906 174.761719 C 291.617188 175.34375 291.175781 175.878906 290.683594 176.375 C 290.1875 176.867188 289.652344 177.308594 289.070312 177.699219 C 288.492188 178.085938 287.878906 178.414062 287.234375 178.683594 C 286.589844 178.949219 285.925781 179.152344 285.238281 179.289062 C 284.554688 179.425781 283.863281 179.492188 283.167969 179.492188 Z M 283.167969 179.492188 " fill-opacity="1" fill-rule="nonzero"/></g><path fill="#000000" d="M 216.730469 319.664062 C 215.640625 319.664062 214.570312 319.5 213.53125 319.171875 C 212.488281 318.839844 211.523438 318.359375 210.628906 317.734375 C 209.734375 317.105469 208.957031 316.355469 208.292969 315.488281 C 207.628906 314.617188 207.109375 313.667969 206.738281 312.640625 C 206.503906 311.984375 206.332031 311.308594 206.226562 310.621094 C 206.121094 309.929688 206.085938 309.234375 206.117188 308.535156 C 206.148438 307.839844 206.25 307.152344 206.417969 306.472656 C 206.585938 305.792969 206.816406 305.140625 207.113281 304.507812 C 207.410156 303.875 207.761719 303.277344 208.175781 302.714844 C 208.589844 302.152344 209.054688 301.636719 209.570312 301.164062 C 210.085938 300.695312 210.640625 300.277344 211.238281 299.914062 C 211.835938 299.554688 212.460938 299.253906 213.117188 299.015625 C 266.265625 280.070312 272.644531 241.753906 272.644531 241.4375 C 272.746094 240.738281 272.914062 240.054688 273.148438 239.390625 C 273.382812 238.722656 273.679688 238.085938 274.042969 237.480469 C 274.402344 236.875 274.820312 236.308594 275.289062 235.785156 C 275.761719 235.257812 276.28125 234.785156 276.847656 234.363281 C 277.410156 233.941406 278.011719 233.578125 278.648438 233.273438 C 279.285156 232.96875 279.945312 232.730469 280.628906 232.554688 C 281.3125 232.382812 282.007812 232.277344 282.710938 232.238281 C 283.414062 232.203125 284.117188 232.234375 284.8125 232.335938 C 285.511719 232.4375 286.191406 232.605469 286.859375 232.84375 C 287.523438 233.078125 288.160156 233.375 288.765625 233.738281 C 289.371094 234.097656 289.9375 234.515625 290.460938 234.988281 C 290.984375 235.460938 291.457031 235.980469 291.878906 236.546875 C 292.300781 237.109375 292.664062 237.710938 292.96875 238.351562 C 293.269531 238.988281 293.507812 239.648438 293.683594 240.332031 C 293.855469 241.015625 293.960938 241.710938 294 242.417969 C 294.035156 243.121094 294.003906 243.824219 293.902344 244.523438 C 293.902344 246.652344 285.609375 295.929688 220.558594 319.027344 C 219.320312 319.464844 218.042969 319.675781 216.730469 319.664062 Z M 216.730469 319.664062 " fill-opacity="1" fill-rule="nonzero"/><path fill="#000000" d="M 201.320312 284.328125 L 189.625 284.328125 C 188.816406 284.273438 188.003906 284.261719 187.191406 284.292969 C 186.378906 284.320312 185.570312 284.390625 184.761719 284.503906 C 183.957031 284.613281 183.160156 284.765625 182.371094 284.960938 C 181.582031 285.15625 180.804688 285.386719 180.039062 285.660156 C 179.273438 285.933594 178.523438 286.246094 177.789062 286.597656 C 177.054688 286.949219 176.339844 287.335938 175.644531 287.757812 C 174.953125 288.183594 174.28125 288.640625 173.632812 289.132812 C 172.984375 289.625 172.363281 290.148438 171.769531 290.707031 C 171.175781 291.261719 170.613281 291.847656 170.078125 292.460938 C 169.546875 293.074219 169.042969 293.714844 168.574219 294.378906 C 168.109375 295.042969 167.675781 295.730469 167.277344 296.441406 C 166.878906 297.152344 166.515625 297.878906 166.195312 298.628906 C 165.871094 299.375 165.585938 300.136719 165.339844 300.910156 C 165.09375 301.6875 164.886719 302.472656 164.722656 303.269531 C 164.558594 304.066406 164.433594 304.871094 164.351562 305.679688 C 164.265625 306.492188 164.226562 307.304688 164.226562 308.117188 C 164.226562 308.929688 164.265625 309.742188 164.351562 310.554688 C 164.433594 311.363281 164.558594 312.167969 164.722656 312.964844 C 164.886719 313.761719 165.09375 314.546875 165.339844 315.324219 C 165.585938 316.097656 165.871094 316.859375 166.195312 317.609375 C 166.515625 318.355469 166.878906 319.082031 167.277344 319.792969 C 167.675781 320.503906 168.109375 321.191406 168.574219 321.855469 C 169.042969 322.519531 169.546875 323.160156 170.078125 323.773438 C 170.613281 324.386719 171.175781 324.972656 171.769531 325.53125 C 172.363281 326.085938 172.984375 326.609375 173.632812 327.101562 C 174.28125 327.59375 174.953125 328.050781 175.644531 328.476562 C 176.339844 328.898438 177.054688 329.285156 177.789062 329.636719 C 178.523438 329.988281 179.273438 330.300781 180.039062 330.574219 C 180.804688 330.847656 181.582031 331.082031 182.371094 331.273438 C 183.160156 331.46875 183.957031 331.621094 184.761719 331.730469 C 185.570312 331.84375 186.378906 331.914062 187.191406 331.945312 C 188.003906 331.972656 188.816406 331.960938 189.625 331.90625 L 201.320312 331.90625 C 202.128906 331.960938 202.941406 331.972656 203.753906 331.945312 C 204.566406 331.914062 205.375 331.84375 206.179688 331.730469 C 206.984375 331.621094 207.785156 331.46875 208.574219 331.273438 C 209.363281 331.082031 210.140625 330.847656 210.90625 330.574219 C 211.671875 330.300781 212.421875 329.988281 213.15625 329.636719 C 213.890625 329.285156 214.605469 328.898438 215.296875 328.476562 C 215.992188 328.050781 216.664062 327.59375 217.3125 327.101562 C 217.957031 326.609375 218.578125 326.085938 219.171875 325.53125 C 219.765625 324.972656 220.332031 324.386719 220.863281 323.773438 C 221.398438 323.160156 221.898438 322.519531 222.367188 321.855469 C 222.835938 321.191406 223.269531 320.503906 223.667969 319.792969 C 224.066406 319.082031 224.425781 318.355469 224.75 317.609375 C 225.074219 316.859375 225.359375 316.097656 225.605469 315.324219 C 225.851562 314.546875 226.054688 313.761719 226.222656 312.964844 C 226.386719 312.167969 226.511719 311.363281 226.59375 310.554688 C 226.675781 309.742188 226.71875 308.929688 226.71875 308.117188 C 226.71875 307.304688 226.675781 306.492188 226.59375 305.679688 C 226.511719 304.871094 226.386719 304.066406 226.222656 303.269531 C 226.054688 302.472656 225.851562 301.6875 225.605469 300.910156 C 225.359375 300.136719 225.074219 299.375 224.75 298.628906 C 224.425781 297.878906 224.066406 297.152344 223.667969 296.441406 C 223.269531 295.730469 222.835938 295.042969 222.367188 294.378906 C 221.898438 293.714844 221.398438 293.074219 220.863281 292.460938 C 220.332031 291.847656 219.765625 291.261719 219.171875 290.707031 C 218.578125 290.148438 217.957031 289.625 217.3125 289.132812 C 216.664062 288.640625 215.992188 288.183594 215.296875 287.757812 C 214.605469 287.335938 213.890625 286.949219 213.15625 286.597656 C 212.421875 286.246094 211.671875 285.933594 210.90625 285.660156 C 210.140625 285.386719 209.363281 285.15625 208.574219 284.960938 C 207.785156 284.765625 206.984375 284.613281 206.179688 284.503906 C 205.375 284.390625 204.566406 284.320312 203.753906 284.292969 C 202.941406 284.261719 202.128906 284.273438 201.320312 284.328125 Z M 201.320312 284.328125 " fill-opacity="1" fill-rule="nonzero"/></svg>