<svg xmlns="http://www.w3.org/2000/svg" xmlns:xlink="http://www.w3.org/1999/xlink" width="500" zoomAndPan="magnify" viewBox="0 0 375 374.999991" height="500" preserveAspectRatio="xMidYMid meet" version="1.0"><defs><clipPath id="d4a69362b9"><path d="M 37.5 58.3125 L 337.5 58.3125 L 337.5 317.0625 L 37.5 317.0625 Z M 37.5 58.3125 " clip-rule="nonzero"/></clipPath></defs><g clip-path="url(#d4a69362b9)"><path fill="#000000" d="M 285.335938 72.707031 C 285.335938 71.761719 285.242188 70.828125 285.058594 69.902344 C 284.875 68.976562 284.601562 68.074219 284.242188 67.203125 C 283.882812 66.332031 283.4375 65.5 282.914062 64.714844 C 282.390625 63.929688 281.796875 63.203125 281.128906 62.535156 C 280.460938 61.871094 279.738281 61.273438 278.953125 60.75 C 278.167969 60.222656 277.339844 59.78125 276.46875 59.417969 C 275.597656 59.058594 274.699219 58.785156 273.773438 58.601562 C 272.851562 58.417969 271.917969 58.324219 270.972656 58.324219 L 104.027344 58.324219 C 103.082031 58.324219 102.148438 58.417969 101.226562 58.601562 C 100.300781 58.785156 99.402344 59.058594 98.53125 59.417969 C 97.660156 59.78125 96.832031 60.222656 96.046875 60.75 C 95.261719 61.273438 94.539062 61.871094 93.871094 62.535156 C 93.203125 63.203125 92.609375 63.929688 92.085938 64.714844 C 91.5625 65.5 91.117188 66.332031 90.757812 67.203125 C 90.398438 68.074219 90.125 68.976562 89.941406 69.902344 C 89.757812 70.828125 89.664062 71.761719 89.664062 72.707031 L 89.664062 120.007812 L 37.5 155.695312 L 37.5 302.636719 C 37.5 303.582031 37.59375 304.515625 37.777344 305.441406 C 37.960938 306.367188 38.230469 307.265625 38.59375 308.140625 C 38.953125 309.011719 39.394531 309.839844 39.921875 310.625 C 40.445312 311.410156 41.039062 312.136719 41.707031 312.804688 C 42.375 313.472656 43.097656 314.070312 43.882812 314.59375 C 44.667969 315.121094 45.496094 315.5625 46.367188 315.921875 C 47.238281 316.285156 48.136719 316.558594 49.058594 316.742188 C 49.984375 316.925781 50.917969 317.019531 51.863281 317.019531 L 323.136719 317.019531 C 324.082031 317.019531 325.015625 316.925781 325.941406 316.742188 C 326.863281 316.558594 327.761719 316.285156 328.632812 315.921875 C 329.503906 315.5625 330.332031 315.121094 331.117188 314.59375 C 331.902344 314.070312 332.625 313.472656 333.292969 312.804688 C 333.960938 312.136719 334.554688 311.410156 335.078125 310.625 C 335.601562 309.839844 336.046875 309.011719 336.40625 308.140625 C 336.769531 307.265625 337.039062 306.367188 337.222656 305.441406 C 337.40625 304.515625 337.5 303.582031 337.5 302.636719 L 337.5 155.695312 L 285.335938 120.007812 Z M 151.691406 213.59375 L 50.265625 297.089844 L 50.265625 168.863281 Z M 164.792969 219.359375 L 187.5 229.316406 L 210.207031 219.296875 L 313.308594 304.171875 L 61.691406 304.171875 Z M 223.308594 213.59375 L 324.734375 168.847656 L 324.734375 297.074219 Z M 104.027344 71.109375 L 270.972656 71.109375 C 271.183594 71.109375 271.386719 71.148438 271.585938 71.230469 C 271.78125 71.3125 271.953125 71.425781 272.101562 71.578125 C 272.25 71.726562 272.367188 71.898438 272.449219 72.09375 C 272.527344 72.292969 272.570312 72.496094 272.570312 72.707031 L 272.570312 177.890625 L 187.5 215.414062 L 102.429688 177.890625 L 102.429688 72.707031 C 102.429688 72.496094 102.472656 72.292969 102.550781 72.09375 C 102.632812 71.898438 102.75 71.726562 102.898438 71.578125 C 103.046875 71.425781 103.21875 71.3125 103.414062 71.230469 C 103.613281 71.148438 103.816406 71.109375 104.027344 71.109375 Z M 89.664062 172.265625 L 56.984375 157.882812 L 89.664062 135.511719 Z M 318.015625 157.882812 L 285.335938 172.265625 L 285.335938 135.511719 Z M 318.015625 157.882812 " fill-opacity="1" fill-rule="nonzero"/></g></svg>