<svg xmlns="http://www.w3.org/2000/svg" xmlns:xlink="http://www.w3.org/1999/xlink" width="500" zoomAndPan="magnify" viewBox="0 0 375 374.999991" height="500" preserveAspectRatio="xMidYMid meet" version="1.0"><defs><clipPath id="329c06598e"><path d="M 43.765625 37.496094 L 331.011719 37.496094 L 331.011719 337.496094 L 43.765625 337.496094 Z M 43.765625 37.496094 " clip-rule="nonzero"/></clipPath><clipPath id="5ef19d81b3"><path d="M 59 7 L 288.011719 7 L 288.011719 242 L 59 242 Z M 59 7 " clip-rule="nonzero"/></clipPath><clipPath id="efb09190f8"><rect x="0" width="289" y="0" height="301"/></clipPath></defs><g clip-path="url(#329c06598e)"><g transform="matrix(1, 0, 0, 1, 43, 37)"><g clip-path="url(#efb09190f8)"><g clip-path="url(#5ef19d81b3)"><path fill="#000000" d="M 69.546875 122.878906 L 69.6875 123.027344 C 72.882812 126.460938 76.28125 129.742188 79.589844 133.066406 L 171.960938 226.164062 C 177.59375 231.941406 184.292969 241.675781 192.609375 241.917969 C 202.367188 242.203125 224.476562 226.777344 231.742188 221.097656 C 264.113281 195.789062 286.703125 157.363281 288.152344 115.742188 C 288.230469 76.253906 273.25 39.53125 236.238281 20.621094 C 202.28125 3.273438 162.523438 4.105469 128.113281 19.433594 C 121.121094 22.546875 102.992188 31.644531 99.535156 38.445312 C 99.472656 40.515625 99.855469 42.644531 100.011719 44.710938 C 101.828125 69.230469 88.59375 92.257812 66.898438 103.371094 C 65.066406 104.3125 59.425781 105.925781 59.332031 108.398438 C 59.140625 113.515625 66.242188 119.464844 69.546875 122.878906 Z M 69.546875 122.878906 " fill-opacity="1" fill-rule="nonzero"/></g><path fill="#000000" d="M 50.210938 219.570312 L 21.066406 246.074219 C 14.839844 251.773438 0.976562 260.355469 7.574219 270.488281 C 10.835938 275.496094 16.292969 280.078125 20.527344 284.3125 C 36.6875 300.472656 38.21875 299.363281 51.796875 283.992188 L 79.011719 253.4375 C 82.929688 249.105469 87.324219 243.050781 92.101562 239.839844 C 112.9375 225.828125 141.214844 247.695312 166.484375 244.347656 C 165.429688 241.738281 160.714844 238.109375 158.65625 236.058594 L 97.253906 174.027344 C 82.527344 159.238281 67.683594 144.535156 53.402344 129.3125 C 52.609375 151.261719 68.894531 171.644531 67.839844 190.648438 C 67.039062 205.117188 60.109375 210.65625 50.210938 219.570312 Z M 50.210938 219.570312 " fill-opacity="1" fill-rule="nonzero"/><path fill="#000000" d="M 5.402344 48.484375 L 5.347656 49.074219 C 3.585938 70.136719 20.070312 88.957031 40.964844 90.640625 C 62.035156 92.339844 80.414062 75.910156 82.113281 55.007812 C 82.773438 44.703125 79.933594 34.769531 73.234375 26.828125 C 50.996094 0.464844 8.046875 14.867188 5.402344 48.484375 Z M 5.402344 48.484375 " fill-opacity="1" fill-rule="nonzero"/></g></g></g></svg>