<svg xmlns="http://www.w3.org/2000/svg" xmlns:xlink="http://www.w3.org/1999/xlink" width="500" zoomAndPan="magnify" viewBox="0 0 375 374.999991" height="500" preserveAspectRatio="xMidYMid meet" version="1.0"><defs><clipPath id="4605006f01"><path d="M 44.316406 233 L 330.816406 233 L 330.816406 281 L 44.316406 281 Z M 44.316406 233 " clip-rule="nonzero"/></clipPath><clipPath id="c8d65bc3c7"><path d="M 44.316406 286 L 330.816406 286 L 330.816406 335 L 44.316406 335 Z M 44.316406 286 " clip-rule="nonzero"/></clipPath></defs><g clip-path="url(#4605006f01)"><path fill="#000000" d="M 330.914062 252.128906 L 319.605469 263.429688 C 306.003906 277.023438 284.695312 279.132812 268.691406 268.46875 L 261.609375 263.75 C 257.09375 260.738281 251.207031 260.738281 246.6875 263.75 L 236.179688 270.75 C 222.625 279.78125 204.96875 279.78125 191.414062 270.75 L 180.90625 263.75 C 176.386719 260.738281 170.5 260.738281 165.984375 263.75 L 155.476562 270.75 C 141.921875 279.78125 124.265625 279.78125 110.710938 270.75 L 100.203125 263.75 C 95.683594 260.738281 89.796875 260.738281 85.28125 263.75 L 59.851562 280.695312 L 44.925781 258.320312 L 70.359375 241.378906 C 83.910156 232.347656 101.570312 232.347656 115.125 241.378906 L 125.632812 248.378906 C 130.148438 251.390625 136.035156 251.390625 140.554688 248.378906 L 151.0625 241.378906 C 164.617188 232.347656 182.273438 232.347656 195.828125 241.378906 L 206.335938 248.378906 C 210.855469 251.390625 216.738281 251.390625 221.257812 248.378906 L 231.765625 241.378906 C 245.320312 232.347656 262.976562 232.347656 276.53125 241.378906 L 283.613281 246.097656 C 288.949219 249.652344 296.050781 248.949219 300.585938 244.414062 L 311.890625 233.113281 Z M 330.914062 252.128906 " fill-opacity="1" fill-rule="evenodd"/></g><g clip-path="url(#c8d65bc3c7)"><path fill="#000000" d="M 330.914062 305.902344 L 319.605469 317.203125 C 306.003906 330.800781 284.695312 332.910156 268.691406 322.246094 L 261.609375 317.527344 C 257.09375 314.515625 251.207031 314.515625 246.6875 317.527344 L 236.179688 324.527344 C 222.625 333.558594 204.96875 333.558594 191.414062 324.527344 L 180.90625 317.527344 C 176.386719 314.515625 170.5 314.515625 165.984375 317.527344 L 155.476562 324.527344 C 141.921875 333.558594 124.265625 333.558594 110.710938 324.527344 L 100.203125 317.527344 C 95.683594 314.515625 89.796875 314.515625 85.28125 317.527344 L 59.851562 334.472656 L 44.925781 312.097656 L 70.359375 295.152344 C 83.910156 286.125 101.570312 286.125 115.125 295.152344 L 125.632812 302.15625 C 130.148438 305.167969 136.035156 305.167969 140.554688 302.15625 L 151.0625 295.152344 C 164.617188 286.125 182.273438 286.125 195.828125 295.152344 L 206.335938 302.15625 C 210.855469 305.167969 216.738281 305.167969 221.257812 302.15625 L 231.765625 295.152344 C 245.320312 286.125 262.976562 286.125 276.53125 295.152344 L 283.613281 299.871094 C 288.949219 303.425781 296.050781 302.722656 300.585938 298.191406 L 311.890625 286.890625 Z M 330.914062 305.902344 " fill-opacity="1" fill-rule="evenodd"/></g><path fill="#000000" d="M 106.191406 67.847656 C 98.761719 67.847656 92.742188 73.867188 92.742188 81.292969 L 92.742188 94.734375 L 65.839844 94.734375 L 65.839844 81.292969 C 65.839844 59.015625 83.90625 40.960938 106.191406 40.960938 L 119.640625 40.960938 C 141.929688 40.960938 159.996094 59.015625 159.996094 81.292969 L 159.996094 256.066406 L 133.09375 256.066406 L 133.09375 81.292969 C 133.09375 73.867188 127.070312 67.847656 119.640625 67.847656 Z M 106.191406 67.847656 " fill-opacity="1" fill-rule="evenodd"/><path fill="#000000" d="M 227.246094 67.847656 C 219.820312 67.847656 213.796875 73.867188 213.796875 81.292969 L 213.796875 94.734375 L 186.894531 94.734375 L 186.894531 81.292969 C 186.894531 59.015625 204.960938 40.960938 227.246094 40.960938 L 240.699219 40.960938 C 262.984375 40.960938 281.050781 59.015625 281.050781 81.292969 L 281.050781 249.34375 L 254.148438 249.34375 L 254.148438 81.292969 C 254.148438 73.867188 248.128906 67.847656 240.699219 67.847656 Z M 227.246094 67.847656 " fill-opacity="1" fill-rule="evenodd"/><path fill="#000000" d="M 146.542969 121.625 L 267.601562 121.625 L 267.601562 148.511719 L 146.542969 148.511719 Z M 146.542969 121.625 " fill-opacity="1" fill-rule="evenodd"/><path fill="#000000" d="M 146.542969 175.398438 L 267.601562 175.398438 L 267.601562 202.289062 L 146.542969 202.289062 Z M 146.542969 175.398438 " fill-opacity="1" fill-rule="evenodd"/></svg>