<svg xmlns="http://www.w3.org/2000/svg" xmlns:xlink="http://www.w3.org/1999/xlink" width="500" zoomAndPan="magnify" viewBox="0 0 375 374.999991" height="500" preserveAspectRatio="xMidYMid meet" version="1.0"><defs><clipPath id="b65132a7c7"><path d="M 39 56.863281 L 336 56.863281 L 336 317.863281 L 39 317.863281 Z M 39 56.863281 " clip-rule="nonzero"/></clipPath></defs><g clip-path="url(#b65132a7c7)"><path fill="#000000" d="M 169.816406 68.410156 C 153.945312 96.128906 114.734375 165.492188 83.226562 221.226562 L 41.546875 294.902344 C 37.792969 301.5 39.195312 306.714844 40.359375 309.234375 C 42.722656 314.339844 47.769531 316.886719 51.695312 317.574219 L 52.488281 317.710938 L 321.480469 317.714844 L 320.917969 317.695312 C 325.136719 317.957031 330.738281 316.4375 333.796875 311.410156 C 335.757812 308.179688 337.164062 302.6875 332.707031 294.882812 L 249.425781 149.519531 L 203.339844 69.113281 C 197.566406 59.027344 190.867188 56.90625 186.265625 56.90625 C 181.773438 56.90625 175.273438 58.902344 169.824219 68.410156 Z M 99.625 230.777344 C 131.125 175.058594 170.316406 105.722656 186.167969 78.046875 L 186.355469 77.746094 C 186.558594 78.054688 186.753906 78.335938 186.984375 78.742188 L 233.082031 159.164062 C 233.082031 159.164062 306.632812 287.554688 312.925781 298.53125 L 61.292969 298.523438 L 99.621094 230.777344 " fill-opacity="1" fill-rule="evenodd"/></g><path fill="#000000" d="M 187.394531 284.613281 C 195.542969 284.613281 202.148438 277.78125 202.148438 269.359375 C 202.148438 260.941406 195.542969 254.113281 187.394531 254.113281 C 179.234375 254.113281 172.632812 260.941406 172.632812 269.359375 C 172.632812 277.78125 179.234375 284.613281 187.394531 284.613281 " fill-opacity="1" fill-rule="evenodd"/><path fill="#000000" d="M 187.394531 135.199219 C 199.167969 135.199219 209.988281 146.324219 208.714844 157.230469 L 198.628906 233.9375 C 197.648438 240.640625 193.597656 245.546875 187.394531 245.546875 C 181.191406 245.546875 177.128906 240.640625 176.160156 233.9375 L 166.074219 157.230469 C 164.792969 146.324219 175.617188 135.199219 187.394531 135.199219 " fill-opacity="1" fill-rule="evenodd"/></svg>