<svg xmlns="http://www.w3.org/2000/svg" xmlns:xlink="http://www.w3.org/1999/xlink" width="500" zoomAndPan="magnify" viewBox="0 0 375 374.999991" height="500" preserveAspectRatio="xMidYMid meet" version="1.0"><defs><clipPath id="fc249f8b7d"><path d="M 38.820312 38.820312 L 335.820312 38.820312 L 335.820312 335.242188 L 38.820312 335.242188 Z M 38.820312 38.820312 " clip-rule="nonzero"/></clipPath></defs><g clip-path="url(#fc249f8b7d)"><path fill="#000000" d="M 232.910156 187.015625 L 333.429688 86.507812 C 335.84375 84.09375 335.84375 80.1875 333.429688 77.773438 L 296.289062 40.628906 C 295.140625 39.453125 293.558594 38.804688 291.925781 38.804688 C 290.28125 38.804688 288.714844 39.453125 287.550781 40.628906 L 187.03125 141.136719 L 86.507812 40.628906 C 84.1875 38.292969 80.082031 38.292969 77.773438 40.628906 L 40.628906 77.773438 C 38.21875 80.1875 38.21875 84.09375 40.628906 86.507812 L 141.152344 187.015625 L 40.628906 287.539062 C 38.21875 289.953125 38.21875 293.859375 40.628906 296.273438 L 77.773438 333.414062 C 78.921875 334.59375 80.503906 335.242188 82.132812 335.242188 C 83.777344 335.242188 85.347656 334.59375 86.507812 333.414062 L 187.03125 232.910156 L 287.550781 333.414062 C 288.714844 334.59375 290.28125 335.242188 291.925781 335.242188 C 293.558594 335.242188 295.140625 334.59375 296.289062 333.414062 L 333.429688 296.289062 C 335.84375 293.875 335.84375 289.953125 333.429688 287.539062 Z M 232.910156 187.015625 " fill-opacity="1" fill-rule="nonzero"/></g></svg>